Coordinates
version=1
nRows=8
nColumns=42
inDegrees=yes

Units are S.I. units (second, meters, Newtons, ...)
If the header above contains a line with 'inDegrees', this indicates whether rotational values are in degrees (yes) or radians (no).

endheader
time	pelvis_tilt	pelvis_list	pelvis_rotation	pelvis_tx	pelvis_ty	pelvis_tz	hip_flexion_r	hip_adduction_r	hip_rotation_r	knee_angle_r	knee_angle_r_beta	ankle_angle_r	subtalar_angle_r	mtp_angle_r	hip_flexion_l	hip_adduction_l	hip_rotation_l	knee_angle_l	knee_angle_l_beta	ankle_angle_l	subtalar_angle_l	mtp_angle_l	lumbar_extension	lumbar_bending	lumbar_rotation	sh_tx_r	sh_ty_r	sh_tz_r	sh_plane_elev_r	sh_elev_r	sh_axial_rot_r	elbow_flex_r	pro_sup_r	sh_tx_l	sh_ty_l	sh_tz_l	sh_plane_elev_l	sh_elev_l	sh_axial_rot_l	elbow_flex_l	pro_sup_l
      6.05084750	     -7.50689076	      0.74454426	      1.01294271	      0.27666228	      0.93785217	     -0.05592257	      4.78792280	     -8.13646940	     -8.33284519	      2.23554510	      0.03901762	      3.93576135	      2.44893851	     -7.49999987	      4.52354420	     -1.97941949	     -5.61588215	      1.43148631	      0.02498415	      8.58143372	      3.99297089	     -7.49999987	      5.67445129	      5.35977451	      4.14850720	     -0.02631417	     -0.00707003	     -0.00393986	      0.38229790	      8.96145555	     12.28726383	     27.43152374	    107.00727936	     -0.01749569	     -0.01220192	     -0.00492884	     46.20091760	    153.10983865	    -23.75788967	     17.90827606	     35.46720837
      6.06779660	     -7.47270663	      0.73849554	      1.06374517	      0.27656186	      0.93799660	     -0.05595920	      4.71775692	     -8.11333213	     -8.43076011	      2.16489846	      0.03778461	      3.89322279	      2.50858221	     -7.49999987	      4.50061414	     -1.99633096	     -5.59848558	      1.43940101	      0.02512229	      8.45853068	      3.91525733	     -7.49999987	      5.63121189	      5.38801679	      4.20296612	     -0.02662379	     -0.00722697	     -0.00395918	      0.24102897	      8.96836305	     12.38600606	     27.38508213	    106.91326951	     -0.01763639	     -0.01227141	     -0.00494849	     46.23023208	    153.02452001	    -23.93761769	     18.16495553	     35.68116143
      6.08474580	     -7.43671533	      0.72004194	      1.09932343	      0.27653753	      0.93754842	     -0.05594719	      4.63580972	     -8.07037645	     -8.61849096	      2.07838005	      0.03627457	      3.82899104	      2.62300231	     -7.49999987	      4.47701036	     -2.02625022	     -5.61543065	      1.44313650	      0.02518748	      8.36363269	      3.87611623	     -7.49999987	      5.58067906	      5.41001612	      4.20317873	     -0.02669830	     -0.00736442	     -0.00396169	      0.07104288	      8.95298241	     12.48082817	     27.37400720	    106.77712352	     -0.01791129	     -0.01245157	     -0.00496667	     46.29315652	    152.99503689	    -23.85788785	     18.24708615	     36.29182273
      6.10169490	     -7.43763794	      0.68497256	      1.09783967	      0.27634094	      0.93759782	     -0.05586792	      4.61630751	     -8.01886225	     -8.80637583	      2.01867665	      0.03523255	      3.78785512	      2.82990873	     -7.49999987	      4.46554225	     -2.07511030	     -5.62153569	      1.40710921	      0.02455869	      8.24055122	      3.78558480	     -7.49999987	      5.58213552	      5.45813243	      4.37028359	     -0.02769449	     -0.00712991	     -0.00394062	      0.40921989	      8.93042360	     12.35215676	     27.20331011	    104.58530299	     -0.01830366	     -0.01215898	     -0.00497989	     46.54969097	    152.89887480	    -25.57981322	     18.97407766	     37.41238592
      6.11864410	     -7.39962387	      0.66899874	      1.05190910	      0.27625627	      0.93714258	     -0.05579863	      4.57198564	     -7.98089045	     -9.00307906	      1.94843753	      0.03400665	      3.77045310	      3.03162460	     -7.49999987	      4.40233906	     -2.10174741	     -5.80899418	      1.36572211	      0.02383635	      8.32297570	      3.93635032	     -7.49999987	      5.54567628	      5.52247524	      4.30736355	     -0.02715567	     -0.00714627	     -0.00392372	      0.13828809	      8.99861686	     12.47938962	     27.37724788	    106.45028924	     -0.01788636	     -0.01248397	     -0.00499211	     46.36467012	    152.99700099	    -24.22802479	     18.51096930	     37.94869565
      6.13559320	     -7.38414285	      0.62145610	      1.03026651	      0.27620333	      0.93737804	     -0.05579243	      4.54484153	     -7.91829343	     -9.13356055	      1.90095703	      0.03317796	      3.76832875	      3.12563921	     -7.49999987	      4.35206678	     -2.15217177	     -5.90659764	      1.30203803	      0.02272485	      8.37548926	      4.05326976	     -7.49999987	      5.60854212	      5.77407776	      3.63631065	     -0.02416393	     -0.00660709	     -0.00405706	      0.03473684	      9.07479598	     14.07128338	     27.62701928	    102.01508778	     -0.01876085	     -0.01264298	     -0.00509463	     44.51998113	    152.81964184	    -26.11973486	     19.65961929	     38.77398948
      6.15254240	     -7.35714435	      0.58876650	      1.00327506	      0.27612227	      0.93702928	     -0.05576093	      4.52214258	     -7.87918723	     -9.28930231	      1.87010910	      0.03263956	      3.85405617	      3.31945588	     -7.49999987	      4.32019549	     -2.18183002	     -5.93271902	      1.27103821	      0.02218380	      8.38440671	      3.96163908	     -7.49999987	      5.50986329	      5.75050738	      4.14458946	     -0.02645707	     -0.00698444	     -0.00395443	      0.28512129	      9.08749874	     12.44611980	     27.43547568	    106.57569270	     -0.01812974	     -0.01246208	     -0.00497236	     45.81951075	    152.96739478	    -24.39037754	     18.43589793	     39.50525184
      6.16949150	     -7.25513024	      0.55557716	      1.02294004	      0.27602366	      0.93457087	     -0.05593242	      4.39570670	     -7.84723177	     -9.37348628	      1.78496896	      0.03115359	      3.89731350	      3.40732623	     -7.49999987	      4.20097665	     -2.21216799	     -5.88727725	      1.24096147	      0.02165886	      8.40513722	      3.91077682	     -7.49999987	      5.36793572	      5.94917992	      3.32974985	     -0.02318477	     -0.00631742	     -0.00407832	      0.22905662	      9.23013523	     13.95239317	     28.03860284	    103.58267232	     -0.01911157	     -0.01252231	     -0.00503451	     43.83219414	    153.01737277	    -25.96306292	     19.17012887	     39.89289351
